{
  "accessors": [
    {
      "bufferView": 2,
      "componentType": 5126,
      "count": 16769,
      "max": [
        5.998781681060791,
        8.7232809066772461,
        9.0724515914916992
      ],
      "min": [
        -6.0816636085510254,
        -9.4859409332275391,
        -9.243433952331543
      ],
      "type": "VEC3"
    },
    {
      "bufferView": 2,
      "byteOffset": 201228,
      "componentType": 5126,
      "count": 16769,
      "max": [
        0.9999663233757019,
        0.99987709522247314,
        0.99999290704727173
      ],
      "min": [
        -0.99997460842132568,
        -0.99999964237213135,
        -0.99993836879730225
      ],
      "type": "VEC3"
    },
    {
      "bufferView": 3,
      "componentType": 5126,
      "count": 16769,
      "max": [
        0.99981200695037842,
        0.99999797344207764,
        0.99994915723800659,
        1
      ],
      "min": [
        -0.99974864721298218,
        -0.99999529123306274,
        -0.99999541044235229,
        -1
      ],
      "type": "VEC4"
    },
    {
      "bufferView": 1,
      "componentType": 5126,
      "count": 16769,
      "max": [
        0.9950752854347229,
        0.99918729066848755
      ],
      "min": [
        0.00079117104178294539,
        0.00074596359627321362
      ],
      "type": "VEC2"
    },
    {
      "bufferView": 0,
      "componentType": 5125,
      "count": 80298,
      "max": [
        16768
      ],
      "min": [
        0
      ],
      "type": "SCALAR"
    }
  ],
  "asset": {
    "extras": {
      "author": "3dhdscan (https://sketchfab.com/3dhdscan)",
      "license": "CC-BY-4.0 (http://creativecommons.org/licenses/by/4.0/)",
      "source": "https://sketchfab.com/models/7aa4f05752be431bbf7a97f082255cba",
      "title": "Discourse - wooden statue"
    },
    "generator": "Sketchfab-3.18.6",
    "version": "2.0"
  },
  "bufferViews": [
    {
      "buffer": 0,
      "byteLength": 321192,
      "byteOffset": 0,
      "name": "floatBufferViews",
      "target": 34963
    },
    {
      "buffer": 0,
      "byteLength": 134152,
      "byteOffset": 321192,
      "byteStride": 8,
      "name": "floatBufferViews",
      "target": 34962
    },
    {
      "buffer": 0,
      "byteLength": 402456,
      "byteOffset": 455344,
      "byteStride": 12,
      "name": "floatBufferViews",
      "target": 34962
    },
    {
      "buffer": 0,
      "byteLength": 268304,
      "byteOffset": 857800,
      "byteStride": 16,
      "name": "floatBufferViews",
      "target": 34962
    }
  ],
  "buffers": [
    {
      "byteLength": 1126104,
      "uri": "scene.bin"
    }
  ],
  "images": [
    {
      "uri": "textures/drevena_socha2_normal.jpeg"
    },
    {
      "uri": "textures/drevena_socha2_baseColor.jpeg"
    }
  ],
  "materials": [
    {
      "doubleSided": true,
      "emissiveFactor": [
        0,
        0,
        0
      ],
      "name": "drevena_socha2",
      "normalTexture": {
        "index": 0,
        "scale": 1,
        "texCoord": 0
      },
      "pbrMetallicRoughness": {
        "baseColorFactor": [
          1,
          1,
          1,
          1
        ],
        "baseColorTexture": {
          "index": 1,
          "texCoord": 0
        },
        "metallicFactor": 0,
        "roughnessFactor": 0.59999999999999998
      }
    }
  ],
  "meshes": [
    {
      "name": "drevena_socha2_drevena_socha2_0",
      "primitives": [
        {
          "attributes": {
            "NORMAL": 1,
            "POSITION": 0,
            "TANGENT": 2,
            "TEXCOORD_0": 3
          },
          "indices": 4,
          "material": 0,
          "mode": 4
        }
      ]
    }
  ],
  "nodes": [
    {
      "children": [
        1
      ],
      "name": "RootNode (gltf orientation matrix)",
      "rotation": [
        -0.70710678118654746,
        -0,
        -0,
        0.70710678118654757
      ]
    },
    {
      "children": [
        2
      ],
      "name": "RootNode (model correction matrix)"
    },
    {
      "children": [
        3
      ],
      "matrix": [
        1,
        0,
        0,
        0,
        0,
        0,
        1,
        0,
        0,
        -1,
        0,
        0,
        0,
        0,
        0,
        1
      ],
      "name": "drevena_socha2.FBX"
    },
    {
      "children": [
        4
      ],
      "name": "RootNode"
    },
    {
      "children": [
        5
      ],
      "matrix": [
        -0.25881904712649262,
        3.1696194570660083e-17,
        -0.96592582574674668,
        0,
        4.2221959515751456e-08,
        -0.99999999999999911,
        -1.1313340082741996e-08,
        0,
        -0.96592582574674579,
        -4.3711389009931178e-08,
        0.25881904712649229,
        0,
        0.052013695240020752,
        0.50878667831420898,
        -0.28781986236572266,
        1
      ],
      "name": "drevena_socha2"
    },
    {
      "mesh": 0,
      "name": "drevena_socha2_drevena_socha2_0"
    }
  ],
  "samplers": [
    {
      "magFilter": 9729,
      "minFilter": 9987,
      "wrapS": 10497,
      "wrapT": 10497
    }
  ],
  "scene": 0,
  "scenes": [
    {
      "name": "OSG_Scene",
      "nodes": [
        0
      ]
    }
  ],
  "textures": [
    {
      "sampler": 0,
      "source": 0
    },
    {
      "sampler": 0,
      "source": 1
    }
  ]
}

